<?xml version="1.0" encoding="utf-8"?>
<!-- Generator: Adobe Illustrator 26.1.0, SVG Export Plug-In . SVG Version: 6.00 Build 0)  -->
<svg version="1.1" id="Слой_1" xmlns="http://www.w3.org/2000/svg" xmlns:xlink="http://www.w3.org/1999/xlink" x="0px" y="0px"
	 viewBox="0 0 527 440.2" style="enable-background:new 0 0 527 440.2;" xml:space="preserve">
<style type="text/css">
	.st0{font-family:'MaturaMTScriptCapitals';}
	.st1{font-size:78px;}
</style>
<g transform="translate(0.000000,826.000000) scale(0.100000,-0.100000)">
	<path d="M2366.7,8218c-51-9-94-19-96-21c-1-2-36-52-76-111c-40-60-76-108-80-108c-3,0-17,12-31,26c-32,35-33,97-1,142l23,32l-96-35
		c-54-19-98-35-100-35c-1,0-28-56-60-125s-62-125-67-125c-6,0-23,14-39,31c-33,35-39,86-15,132c8,15,13,27,10,27c-2,0-44-22-92-49
		l-87-50l-34-133c-19-73-35-134-37-136c-5-8-64,30-78,50c-18,26-21,90-5,120c15,27,1,18-88-57l-71-60l-6-80c-17-214-16-211-76-180
		c-41,21-64,68-57,118c3,22,2,36-2,31s-36-42-70-82l-62-74l6-51c3-29,9-91,13-139c8-88,8-88-16-88c-27,0-73,22-91,44
		c-7,8-16,36-19,63l-7,48l-53-93l-53-93l37-131c39-143,37-154-21-142c-41,8-74,31-84,57c-5,12-13,32-17,45c-8,19-14,8-43-75l-34-98
		l57-122c32-68,55-127,51-133c-10-16-88-12-114,6c-13,9-31,34-41,56l-18,40l-17-92c-9-51-17-100-17-109c-1-9,33-65,75-125
		s77-113,77-117c0-5-19-13-42-20c-53-14-99,5-128,53l-20,33v-67v-68h-155c-167,0-198,7-229,52c-9,12-16,42-16,66c0,35,6,49,30,74
		c27,26,36,30,68,24c42-6,62-28,62-66c0-36-17-50-61-50c-21,0-41-5-45-11c-11-18,23-43,60-43c105,0,138,140,47,201
		c-64,43-161,21-194-44c-47-93-16-190,78-241c28-16,219-17,2535-17c2347,0,2507,1,2536,17c44,24,81,72,94,118c34,126-99,236-207,170
		c-39-24-56-53-56-100c0-74,70-127,130-98c41,20,36,43-9,44c-47,1-68,18-68,55c0,68,79,92,131,40s36-141-31-176c-23-12-73-15-242-15
		h-214l-38,39c-21,22-35,44-32,50c11,16,81,34,109,27c14-3,40-20,58-38c24-24,30-27,26-13c-3,11-11,57-18,102s-15,86-18,91
		c-3,4-54,41-113,82c-60,41-108,77-108,80c0,17,51,51,84,57c29,4,44,0,76-21l40-26l-35,97c-20,53-37,98-38,99s-57,28-124,60
		c-68,31-123,63-123,70s14,24,31,38c35,30,88,34,132,12c15-8,27-13,27-10c0,2-22,43-50,92l-49,87l-133,34c-73,19-134,35-136,37
		c-8,5,30,64,50,78c26,18,90,21,120,5c28-15,17,1-57,88l-60,70l-80,7c-215,18-211,16-180,76c22,42,68,64,119,56c24-4,37-3,31,2
		c-5,5-43,37-83,71l-73,62l-57-6c-31-3-95-9-141-14l-83-7l5,39c7,54,42,86,101,95l47,7l-91,53l-91,53l-131-36c-87-24-134-33-141-26
		c-14,14,0,74,24,105c11,14,39,31,62,37l42,11l-94,34c-51,19-98,34-104,34s-64-25-129-56c-65-30-123-52-128-49c-6,3-10,26-10,50
		c0,53,35,100,81,110c17,4,29,9,26,11c-2,2-50,12-106,22l-102,19l-111-79c-61-43-115-78-119-78c-13,0-31,79-23,103c9,30,24,47,59,69
		l30,18h-110h-110l-97-97c-93-93-98-96-113-78c-19,26-29,77-20,106c4,13,21,36,37,51C2490.7,8242,2492.7,8242,2366.7,8218z
		 M2871.7,7903c690-91,1273-554,1516-1205c57-154,88-290,112-497l6-53h-40h-39l-7,63c-83,776-608,1386-1357,1578
		c-182,46-454,62-648,39c-815-100-1464-755-1561-1577l-12-103h-39c-21,0-38,4-38,9c0,45,36,266,56,346
		C1052.7,7419,1939.7,8025,2871.7,7903z M2981.7,7754c542-114,991-468,1228-969c80-169,140-386,159-579l6-58h-1740h-1741l6,63
		c84,818,702,1452,1525,1567c36,5,148,7,250,5C2824.7,7780,2882.7,7774,2981.7,7754z"/>
	<path d="M2606.7,7633l-22-74l-83-3l-82-3l63-44c34-25,62-50,62-55c0-6-9-40-20-75s-19-66-17-68s32,17,66,42l61,45l61-45
		c34-25,63-44,65-42s-5,32-16,68c-11,35-20,69-20,75c0,5,28,30,63,55l62,44l-82,3l-83,3l-22,74c-13,41-25,75-28,75
		S2619.7,7674,2606.7,7633z"/>
	<path d="M2113.7,7531l-15-48l-58-3l-58-3l46-35l45-34l-19-55c-10-30-16-55-13-55s22,14,43,30c21,17,43,30,50,30s29-13,50-30
		c21-16,40-30,43-30s-3,25-13,55l-19,55l45,34l46,35l-58,3l-58,3l-15,48c-8,26-17,47-21,47S2121.7,7557,2113.7,7531z"/>
	<path d="M3121.7,7524l-18-56h-57l-57-1l25-20c14-12,34-27,44-35c18-12,18-17,7-55c-7-22-15-48-18-57c-4-9,11-3,40,16
		c25,18,48,32,52,32s27-14,52-32c29-19,44-25,40-16c-3,9-11,35-18,57c-11,38-11,43,7,55c10,8,30,23,44,35l25,20l-57,1h-56l-19,56
		l-19,56L3121.7,7524z"/>
	<path d="M1788.7,7325c-8-28-15-33-49-37l-40-5l32-23c28-20,31-26,23-48c-16-41-12-47,20-24l30,21l27-20c32-26,39-21,25,18
		c-10,27-8,32,21,55l32,25l-42,1c-38,0-42,3-48,30C1810.7,7360,1798.7,7363,1788.7,7325z"/>
	<path d="M3455.7,7316c-12-36-15-38-54-38c-40-1-41-1-22-16c11-8,26-19,34-23c11-7,12-15,2-41c-14-42-10-45,22-19l27,20l29-20
		c39-28,41-27,28,15c-10,34-9,37,18,58l30,21l-39,5c-34,4-41,10-51,40l-12,35L3455.7,7316z"/>
	<path d="M2699.7,6938c-215-215-288-277-284-242c0,4,45,48,99,97c54,50,99,98,99,107c2,51,56,98,111,98c29,0,21,23-11,30
		c-13,4-35,3-49,0c-14-4-100-82-191-172c-153-153-169-166-215-176c-27-6-96-33-154-60c-174-82-242-102-369-113c-63-5-116-7-118-6
		c-2,2,6,26,18,52c16,36,20,61,16,98c-4,43-10,56-45,89c-37,34-47,38-93,38c-73,0-118-24-141-77c-24-54-13-101,37-167l34-45l-27-29
		c-15-16-45-38-67-50c-101-52-168-125-152-166c6-15,140-16,1457-16h1451l-6,23c-13,41-56,88-107,115c-27,15-65,39-83,53
		c-19,14-54,31-77,37c-33,9-450,42-526,42c-7,0-12,13-12,33c0,41-39,150-72,203c-14,22-44,61-66,87s-43,56-47,67
		c-11,36,13,74,68,107c57,35,117,86,117,101c0,30-134,19-234-19c-30-11-73-34-97-51c-61-43-139-119-139-136c0-23,96-185,161-273
		c33-43,59-84,59-91c0-8-31-9-113-5c-133,8-227,30-246,57c-7,11-19,20-25,20c-8,0-11,13-8,35c4,32,2,35-21,35c-19,0-26-6-29-22
		c-2-19-10-24-43-26l-40-3l58,58c31,32,57,67,57,77c0,28,36,71,155,188c81,80,116,108,135,108c44,0,71,27,69,68c-3,43-15,72-31,72
		C2955.7,7188,2837.7,7076,2699.7,6938z M3134.7,7067c-47-16-87-29-90-29c-14,1,41,26,90,41C3225.7,7109,3225.7,7099,3134.7,7067z
		 M3084.7,6949c-14-27-12-91,4-122c7-14,34-51,59-82c57-70,94-133,101-172c5-22,2-19-9,11c-9,22-49,82-90,134c-41,51-79,109-85,129
		c-9,34-3,82,15,111C3090.7,6976,3095.7,6969,3084.7,6949z M1423.7,6709c-33-33-37-70-13-116c14-28,14-29-2-14c-9,10-18,37-21,61
		c-4,37-1,47,22,71c15,15,31,27,36,27C1449.7,6738,1439.7,6725,1423.7,6709z M2050.7,6552c-60-30-118-54-130-54c-13,1-4,8,24,19
		c25,9,79,34,119,54c41,20,79,37,85,36C2154.7,6607,2110.7,6582,2050.7,6552z M2365.7,6524c30-8,104-35,165-60
		c179-73,335-109,515-120c783-46,1001-64,1022-85c4-4-15-2-44,5c-30,8-87,14-129,14c-41,0-185,9-320,20s-327,24-427,30
		c-278,14-426,45-643,135c-212,87-281,85-515-20c-170-76-248-101-357-114c-104-12-354-24-346-16c3,3,83,10,178,15
		c237,13,324,35,540,135C2163.7,6537,2255.7,6552,2365.7,6524z M2911.7,6488l68-9l-80,5c-44,2-93,9-110,14c-27,8-25,9,12,4
		C2824.7,6499,2873.7,6493,2911.7,6488z M1887.7,6491c-7-2-19-2-25,0c-7,3-2,5,12,5S1893.7,6494,1887.7,6491z M3667.7,6441
		c-24-2-62-2-85,0c-24,2-5,4,42,4S3690.7,6443,3667.7,6441z"/>
	<path d="M89.7,5305c-80-45-111-132-76-211c25-57,69-86,133-86c113,0,166,141,77,204c-49,34-141,10-109-29c8-9,22-12,41-8
		c38,7,59-11,59-53c0-64-88-89-135-38c-30,33-34,101-8,141c32,49,61,53,342,53h259l76-36c42-20,76-41,76-46c0-6-14-23-31-39
		c-36-33-82-38-129-14c-17,9-30,13-30,10c0-10,93-170,103-176c5-4,66-21,136-39c69-18,127-34,129-35c8-7-29-65-50-79
		c-26-19-90-21-120-5c-19,10-20,10-7-8c8-11,39-49,68-85l55-66l90-6c200-15,202-16,170-77c-20-39-75-63-123-54c-22,4-32,3-26-3
		c6-5,43-37,84-71c64-55,78-62,105-57c17,2,72,8,121,11c50,4,98,9,108,11c40,12,9-94-36-118c-12-6-39-14-60-17l-39-6l92-52l91-52
		l127,34c70,19,130,35,133,35c15,0,19-34,9-71c-12-43-51-79-86-79c-50,0-28-17,64-49l97-33l122,57c68,31,127,54,133,50
		c16-10,12-88-6-114c-9-13-34-31-56-41l-39-17l98-18c54-10,103-18,108-18c6,0,59,34,118,76c59,43,112,77,117,77s14-19,21-42
		c14-53-5-99-53-128l-33-20h110h110l95,95c52,52,98,95,101,95c11,0,39-67,39-94c0-16-14-42-37-68c-36-39-36-41-13-35
		c14,3,59,11,100,18s81,17,88,22c8,6,46,57,85,114s76,102,82,100c5-2,20-19,33-38c28-40,25-83-8-129l-21-30l98,36
		c54,19,99,36,100,37s27,56,57,122s60,121,66,123c5,2,23-10,40-26c34-35,40-84,15-132c-9-17-13-30-10-30c10,0,170,93,176,103
		c4,5,21,66,39,135c18,70,34,128,36,130c6,8,64-30,78-50c19-26,21-90,5-120c-10-19-10-20,8-7c11,8,49,39,85,68l66,55l6,90
		c15,199,16,202,76,171c42-22,64-68,56-119c-4-22-5-38-3-36c3,3,35,41,71,85c57,68,66,84,62,110c-3,17-8,71-11,120
		c-4,50-9,98-11,108c-10,34,82,13,115-27c7-8,16-36,19-61l7-47l53,92l52,92l-36,130c-24,87-32,134-26,140c32,32,142-35,142-86
		c0-13,5-28,10-31c6-3,10-2,10,4c0,5,14,48,31,95l31,86h218c120,0,230-4,245-10c76-29,103-130,49-184c-50-50-134-26-134,38
		c0,42,21,60,59,53c19-4,33-1,41,8c20,24-6,45-54,45c-73,0-121-75-92-143c21-51,60-77,115-77c165,0,203,223,50,300
		c-38,20-70,20-2541,20h-2503L89.7,5305z M1055.7,5201c223-408,581-709,1014-852c197-65,357-91,565-91s368,26,565,91
		c430,143,793,447,1011,847c45,81,45,82,85,82c21,0,39-3,39-7c0-3-23-49-51-102c-184-345-477-627-834-802
		c-834-408-1844-135-2366,640c-59,88-149,248-149,266c0,3,18,5,39,5C1012.7,5278,1013.7,5277,1055.7,5201z M4170.7,5229
		c-106-208-354-483-560-620c-60-40-145-91-190-113c-703-353-1548-196-2076,386c-97,107-196,249-254,364l-17,32h1561h1560
		L4170.7,5229z"/>
	<path d="M2231.7,5168l-19-31l69-68c37-38,80-83,96-101c15-18,27-29,27-26s8-2,18-11c11-10,17-21,15-24c-1-4,4-9,12-13
		c26-10,16-30-25-54c-45-25-47-32-24-68c16-24,16-27-5-54c-25-35-26-53-4-86c15-24,15-27,0-54c-9-15-17-41-17-56s-9-38-21-50
		c-20-21-19-44,2-44c5,0,52,43,103,95c52,52,93,95,91,95s14,18,35,40s44,40,52,40c7,0,27-16,43-36c51-61,224-234,234-234
		c21,0,22,23,2,44c-12,12-21,35-21,50s-7,40-16,55c-15,25-15,30,0,59c21,41,20,51-6,79c-21,22-21,24-5,58c9,20,17,37,17,40
		c0,2-18,14-40,26c-41,23-51,45-25,55c8,4,13,9,10,14c-2,4,7,13,20,20c14,7,25,17,25,21s41,48,91,98l90,91l-18,30
		c-10,18-24,29-33,27c-8-2-95-54-192-115l-178-110l-177,110c-98,61-185,113-193,115C2255.7,5197,2241.7,5186,2231.7,5168z
		 M2289.7,5158c0-22-29-18-33,3c-3,14,1,18,15,15C2281.7,5174,2289.7,5166,2289.7,5158z M3014.7,5164c0-20-19-31-32-18
		c-6,6-7,15-4,21C2988.7,5183,3014.7,5180,3014.7,5164z"/>
	<path d="M1884.7,4873v-75h35c23,0,35,5,35,14s-7,12-19,9c-11-3-21,2-25,12c-8,22,2,38,20,31c8-3,14,1,14,10s-7,14-17,12
		c-12-2-18,4-18,17c0,14,7,20,23,19c12,0,22,5,22,13s-13,13-35,13h-35V4873z"/>
	<path d="M1974.7,4915c0-26,5-36,25-45c15-7,25-20,25-32c0-26-14-25-33,3c-16,22-16,22-16-11c-1-32,0-33,37-30c34,3,37,6,40,35
		c3,27-1,35-22,45c-14,6-26,19-26,30c0,22,16,24,24,3c9-23,28-18,24,8c-2,18-10,23-40,25C1975.7,4949,1974.7,4948,1974.7,4915z"/>
	<path d="M2064.7,4933c0-9,6-12,16-8c14,5,15-3,12-61c-2-54,0-66,12-66s14,12,12,66c-3,58-2,66,12,61c10-4,16-1,16,8
		c0,11-11,15-40,15S2064.7,4944,2064.7,4933z"/>
	<path d="M3094.7,4873c0-60,3-75,15-75s15,15,15,75s-3,75-15,75S3094.7,4933,3094.7,4873z"/>
	<path d="M3144.7,4903c0-41,2-45,25-45c18,0,25-5,25-20c0-25-18-26-36-2c-12,15-13,14-14-10c0-25,3-28,35-28h35v75v75h-35
		C3144.7,4948,3144.7,4948,3144.7,4903z M3194.7,4902c0-31-23-28-28,4c-2,15,2,22,12,22C3189.7,4928,3194.7,4919,3194.7,4902z"/>
	<path d="M3234.7,4938c0-5,9-10,20-10s20-2,20-3c0-2-9-30-20-62c-24-69-23-65-7-65c11,0,57,117,57,143c0,4-16,7-35,7
		S3234.7,4944,3234.7,4938z"/>
	<path d="M3321.7,4942c-4-4-7-38-7-76v-69l38,3l37,3v70v70l-30,3C3342.7,4948,3325.7,4946,3321.7,4942z M3364.7,4873
		c0-30-4-55-10-55c-5,0-10,25-10,55s5,55,10,55C3360.7,4928,3364.7,4903,3364.7,4873z"/>
	<path d="M2154.7,4898c0-5,7-10,15-10s15,5,15,10c0,6-7,10-15,10S2154.7,4904,2154.7,4898z"/>
	<path d="M2161.7,4821c-12-11-8-23,8-23c8,0,15,7,15,15C2184.7,4829,2172.7,4833,2161.7,4821z"/>
	<path d="M2309.7,4773c-21-13-43-34-47-47c-8-20-5-19,18,7l26,30l-21-31c-11-17-26-31-34-31c-7,0-44-15-81-33l-68-33l31-24
		c17-13,31-32,31-41c0-13,51-127,68-152c2-3,11,5,20,18c10,12,34,27,55,33c36,10,63,40,52,59c-3,5-13,6-22,3c-11-4-14-2-11,8
		c3,8,11,13,19,12c8-2,20,10,27,26c11,24,10,34-4,64c-16,34-16,37,4,71c18,30,20,40,10,61C2368.7,4803,2361.7,4803,2309.7,4773z
		 M2344.7,4743c0-8-4-15-9-15c-13,0-22,16-14,24C2332.7,4763,2344.7,4758,2344.7,4743z M2334.7,4678c0-5-4-10-10-10c-5,0-10,5-10,10
		c0,6,5,10,10,10C2330.7,4688,2334.7,4684,2334.7,4678z M2257.7,4656c9-7,26-40,37-72c22-66,15-89-27-84c-19,2-29,16-49,63
		c-29,72-29,81-6,94C2234.7,4670,2237.7,4670,2257.7,4656z M2354.7,4613c0-8-4-15-10-15c-5,0-10,7-10,15s5,15,10,15
		C2350.7,4628,2354.7,4621,2354.7,4613z M2269.7,4469c-16-10-34-16-39-13s4,11,20,18C2293.7,4493,2303.7,4490,2269.7,4469z"/>
	<path d="M2884.7,4769c-10-26-9-33,10-59c21-28,21-31,6-67c-14-32-14-43-4-66c7-16,19-28,27-26c8,1,16-4,19-12c3-10,0-12-11-8
		c-9,3-19,2-22-3c-11-18,16-51,45-57c17-3,41-17,55-31s26-23,28-21c20,33,67,138,67,151c0,9,14,27,31,41l31,24l-54,26
		c-62,30-90,41-100,39c-4-1-17,13-28,31l-22,32l26-30c22-25,24-26,20-7c-5,19-82,72-104,72C2900.7,4798,2891.7,4785,2884.7,4769z
		 M2944.7,4743c0-8-4-15-10-15c-5,0-10,7-10,15s5,15,10,15C2940.7,4758,2944.7,4751,2944.7,4743z M2954.7,4678c0-5-4-10-10-10
		c-5,0-10,5-10,10c0,6,5,10,10,10C2950.7,4688,2954.7,4684,2954.7,4678z M3058.7,4652c21-20,21-18-11-91c-22-49-32-63-49-63
		c-41,0-48,23-24,87C3006.7,4671,3025.7,4686,3058.7,4652z M2934.7,4613c0-8-4-15-9-15c-13,0-22,16-14,24
		C2922.7,4633,2934.7,4628,2934.7,4613z M3044.7,4464c0-3-4-8-10-11c-5-3-10-1-10,4c0,6,5,11,10,11
		C3040.7,4468,3044.7,4466,3044.7,4464z"/>
</g>
<text transform="matrix(1.6461 0 0 1 76.4673 270.8711)" class="st0 st1">Sherif</text>
</svg>
